<mxfile host="app.diagrams.net" agent="Mozilla/5.0 (Windows NT 10.0; Win64; x64) AppleWebKit/537.36 (KHTML, like Gecko) Chrome/129.0.0.0 Safari/537.36" version="24.7.16">
  <diagram name="Page-1" id="vm6YEh82oOrSYQvgDtT3">
    <mxGraphModel dx="3475" dy="2425" grid="1" gridSize="10" guides="1" tooltips="1" connect="1" arrows="1" fold="1" page="1" pageScale="1" pageWidth="850" pageHeight="1100" math="0" shadow="0">
      <root>
        <mxCell id="0" />
        <mxCell id="1" parent="0" />
        <mxCell id="AZUPCOziI6SF9PpO8oum-77" value="Vegzettseg" style="ellipse;whiteSpace=wrap;html=1;shadow=0;fillColor=#f5f5f5;fontColor=#333333;strokeColor=#666666;" vertex="1" parent="1">
          <mxGeometry x="1073" y="295" width="100" height="70" as="geometry" />
        </mxCell>
        <mxCell id="AZUPCOziI6SF9PpO8oum-73" value="Vegzettseg" style="ellipse;whiteSpace=wrap;html=1;shadow=0;fillColor=#f5f5f5;fontColor=#333333;strokeColor=#666666;" vertex="1" parent="1">
          <mxGeometry x="513" y="295" width="100" height="70" as="geometry" />
        </mxCell>
        <mxCell id="AZUPCOziI6SF9PpO8oum-45" value="" style="ellipse;whiteSpace=wrap;html=1;" vertex="1" parent="1">
          <mxGeometry x="383" y="130" width="120" height="80" as="geometry" />
        </mxCell>
        <mxCell id="AZUPCOziI6SF9PpO8oum-28" value="" style="ellipse;whiteSpace=wrap;html=1;" vertex="1" parent="1">
          <mxGeometry x="-80" y="130" width="120" height="80" as="geometry" />
        </mxCell>
        <mxCell id="AZUPCOziI6SF9PpO8oum-1" value="B8GU52_Vendeglatas" style="ellipse;whiteSpace=wrap;html=1;dashed=1;" vertex="1" parent="1">
          <mxGeometry x="1232" y="-60" width="86" height="60" as="geometry" />
        </mxCell>
        <mxCell id="AZUPCOziI6SF9PpO8oum-3" value="&lt;u&gt;Ekod&lt;/u&gt;" style="rhombus;whiteSpace=wrap;html=1;" vertex="1" parent="1">
          <mxGeometry x="-290" y="210" width="80" height="80" as="geometry" />
        </mxCell>
        <mxCell id="AZUPCOziI6SF9PpO8oum-7" value="" style="rounded=0;whiteSpace=wrap;html=1;rotation=90;" vertex="1" parent="1">
          <mxGeometry x="-187.5" y="400" width="75" height="40" as="geometry" />
        </mxCell>
        <mxCell id="AZUPCOziI6SF9PpO8oum-12" value="Etterem" style="ellipse;whiteSpace=wrap;html=1;perimeterSpacing=0;strokeColor=default;" vertex="1" parent="1">
          <mxGeometry x="-63" y="140" width="86" height="60" as="geometry" />
        </mxCell>
        <mxCell id="AZUPCOziI6SF9PpO8oum-13" value="Nev" style="ellipse;whiteSpace=wrap;html=1;" vertex="1" parent="1">
          <mxGeometry x="-193" y="300" width="86" height="60" as="geometry" />
        </mxCell>
        <mxCell id="AZUPCOziI6SF9PpO8oum-14" value="Cim" style="ellipse;whiteSpace=wrap;html=1;" vertex="1" parent="1">
          <mxGeometry x="-63" y="300" width="86" height="60" as="geometry" />
        </mxCell>
        <mxCell id="AZUPCOziI6SF9PpO8oum-15" value="Csillag" style="ellipse;whiteSpace=wrap;html=1;" vertex="1" parent="1">
          <mxGeometry x="67" y="300" width="86" height="60" as="geometry" />
        </mxCell>
        <mxCell id="AZUPCOziI6SF9PpO8oum-16" value="Varos" style="ellipse;whiteSpace=wrap;html=1;" vertex="1" parent="1">
          <mxGeometry x="-166" y="500" width="86" height="60" as="geometry" />
        </mxCell>
        <mxCell id="AZUPCOziI6SF9PpO8oum-17" value="Utca" style="ellipse;whiteSpace=wrap;html=1;" vertex="1" parent="1">
          <mxGeometry x="-63" y="500" width="86" height="60" as="geometry" />
        </mxCell>
        <mxCell id="AZUPCOziI6SF9PpO8oum-18" value="Hazszam" style="ellipse;whiteSpace=wrap;html=1;" vertex="1" parent="1">
          <mxGeometry x="40" y="500" width="86" height="60" as="geometry" />
        </mxCell>
        <mxCell id="AZUPCOziI6SF9PpO8oum-19" value="" style="rounded=0;whiteSpace=wrap;html=1;rotation=90;" vertex="1" parent="1">
          <mxGeometry x="72.5" y="400" width="75" height="40" as="geometry" />
        </mxCell>
        <mxCell id="AZUPCOziI6SF9PpO8oum-20" value="" style="rounded=0;whiteSpace=wrap;html=1;rotation=90;" vertex="1" parent="1">
          <mxGeometry x="-160.5" y="600" width="75" height="40" as="geometry" />
        </mxCell>
        <mxCell id="AZUPCOziI6SF9PpO8oum-21" value="" style="rounded=0;whiteSpace=wrap;html=1;rotation=90;" vertex="1" parent="1">
          <mxGeometry x="-57.5" y="600" width="75" height="40" as="geometry" />
        </mxCell>
        <mxCell id="AZUPCOziI6SF9PpO8oum-22" value="" style="rounded=0;whiteSpace=wrap;html=1;rotation=90;" vertex="1" parent="1">
          <mxGeometry x="45.5" y="600" width="75" height="40" as="geometry" />
        </mxCell>
        <mxCell id="AZUPCOziI6SF9PpO8oum-24" value="" style="endArrow=none;html=1;rounded=0;entryX=0.5;entryY=1;entryDx=0;entryDy=0;exitX=0.5;exitY=0;exitDx=0;exitDy=0;" edge="1" parent="1" source="AZUPCOziI6SF9PpO8oum-28" target="AZUPCOziI6SF9PpO8oum-1">
          <mxGeometry width="50" height="50" relative="1" as="geometry">
            <mxPoint x="60" y="280" as="sourcePoint" />
            <mxPoint x="110" y="230" as="targetPoint" />
          </mxGeometry>
        </mxCell>
        <mxCell id="AZUPCOziI6SF9PpO8oum-29" value="" style="endArrow=none;html=1;rounded=0;exitX=0.5;exitY=0;exitDx=0;exitDy=0;entryX=0.5;entryY=1;entryDx=0;entryDy=0;" edge="1" parent="1" source="AZUPCOziI6SF9PpO8oum-13" target="AZUPCOziI6SF9PpO8oum-28">
          <mxGeometry width="50" height="50" relative="1" as="geometry">
            <mxPoint x="-20" y="280" as="sourcePoint" />
            <mxPoint x="30" y="230" as="targetPoint" />
          </mxGeometry>
        </mxCell>
        <mxCell id="AZUPCOziI6SF9PpO8oum-30" value="" style="endArrow=none;html=1;rounded=0;" edge="1" parent="1" source="AZUPCOziI6SF9PpO8oum-14">
          <mxGeometry width="50" height="50" relative="1" as="geometry">
            <mxPoint x="-30" y="290" as="sourcePoint" />
            <mxPoint x="-20" y="210" as="targetPoint" />
          </mxGeometry>
        </mxCell>
        <mxCell id="AZUPCOziI6SF9PpO8oum-31" value="" style="endArrow=none;html=1;rounded=0;entryX=0.5;entryY=1;entryDx=0;entryDy=0;exitX=0.5;exitY=0;exitDx=0;exitDy=0;" edge="1" parent="1" source="AZUPCOziI6SF9PpO8oum-15" target="AZUPCOziI6SF9PpO8oum-28">
          <mxGeometry width="50" height="50" relative="1" as="geometry">
            <mxPoint x="40" y="280" as="sourcePoint" />
            <mxPoint x="90" y="230" as="targetPoint" />
          </mxGeometry>
        </mxCell>
        <mxCell id="AZUPCOziI6SF9PpO8oum-32" value="" style="endArrow=none;html=1;rounded=0;entryX=0.5;entryY=1;entryDx=0;entryDy=0;exitX=0;exitY=0.5;exitDx=0;exitDy=0;" edge="1" parent="1" source="AZUPCOziI6SF9PpO8oum-7" target="AZUPCOziI6SF9PpO8oum-13">
          <mxGeometry width="50" height="50" relative="1" as="geometry">
            <mxPoint x="-270" y="440" as="sourcePoint" />
            <mxPoint x="-220" y="390" as="targetPoint" />
          </mxGeometry>
        </mxCell>
        <mxCell id="AZUPCOziI6SF9PpO8oum-33" value="" style="endArrow=none;html=1;rounded=0;entryX=0.5;entryY=1;entryDx=0;entryDy=0;exitX=0.5;exitY=0;exitDx=0;exitDy=0;" edge="1" parent="1" source="AZUPCOziI6SF9PpO8oum-17" target="AZUPCOziI6SF9PpO8oum-14">
          <mxGeometry width="50" height="50" relative="1" as="geometry">
            <mxPoint x="-30" y="450" as="sourcePoint" />
            <mxPoint x="20" y="400" as="targetPoint" />
          </mxGeometry>
        </mxCell>
        <mxCell id="AZUPCOziI6SF9PpO8oum-34" value="" style="endArrow=none;html=1;rounded=0;entryX=0.5;entryY=1;entryDx=0;entryDy=0;exitX=0;exitY=0.5;exitDx=0;exitDy=0;" edge="1" parent="1" source="AZUPCOziI6SF9PpO8oum-19" target="AZUPCOziI6SF9PpO8oum-15">
          <mxGeometry width="50" height="50" relative="1" as="geometry">
            <mxPoint x="20" y="460" as="sourcePoint" />
            <mxPoint x="70" y="410" as="targetPoint" />
          </mxGeometry>
        </mxCell>
        <mxCell id="AZUPCOziI6SF9PpO8oum-35" value="" style="endArrow=none;html=1;rounded=0;entryX=0.5;entryY=1;entryDx=0;entryDy=0;exitX=0;exitY=0.5;exitDx=0;exitDy=0;" edge="1" parent="1" source="AZUPCOziI6SF9PpO8oum-20" target="AZUPCOziI6SF9PpO8oum-16">
          <mxGeometry width="50" height="50" relative="1" as="geometry">
            <mxPoint x="-250" y="540" as="sourcePoint" />
            <mxPoint x="-200" y="490" as="targetPoint" />
          </mxGeometry>
        </mxCell>
        <mxCell id="AZUPCOziI6SF9PpO8oum-36" value="" style="endArrow=none;html=1;rounded=0;entryX=0.5;entryY=1;entryDx=0;entryDy=0;exitX=0;exitY=0.5;exitDx=0;exitDy=0;" edge="1" parent="1" source="AZUPCOziI6SF9PpO8oum-21" target="AZUPCOziI6SF9PpO8oum-17">
          <mxGeometry width="50" height="50" relative="1" as="geometry">
            <mxPoint x="-110" y="680" as="sourcePoint" />
            <mxPoint x="-60" y="630" as="targetPoint" />
          </mxGeometry>
        </mxCell>
        <mxCell id="AZUPCOziI6SF9PpO8oum-37" value="" style="endArrow=none;html=1;rounded=0;entryX=0.5;entryY=1;entryDx=0;entryDy=0;exitX=0;exitY=0.5;exitDx=0;exitDy=0;" edge="1" parent="1" source="AZUPCOziI6SF9PpO8oum-22" target="AZUPCOziI6SF9PpO8oum-18">
          <mxGeometry width="50" height="50" relative="1" as="geometry">
            <mxPoint x="130" y="690" as="sourcePoint" />
            <mxPoint x="180" y="640" as="targetPoint" />
          </mxGeometry>
        </mxCell>
        <mxCell id="AZUPCOziI6SF9PpO8oum-38" value="" style="endArrow=none;html=1;rounded=0;entryX=0;entryY=0.5;entryDx=0;entryDy=0;exitX=1;exitY=0.5;exitDx=0;exitDy=0;" edge="1" parent="1" source="AZUPCOziI6SF9PpO8oum-3" target="AZUPCOziI6SF9PpO8oum-28">
          <mxGeometry width="50" height="50" relative="1" as="geometry">
            <mxPoint x="-175" y="240" as="sourcePoint" />
            <mxPoint x="-125" y="190" as="targetPoint" />
          </mxGeometry>
        </mxCell>
        <mxCell id="AZUPCOziI6SF9PpO8oum-40" value="Foszakacs" style="ellipse;whiteSpace=wrap;html=1;" vertex="1" parent="1">
          <mxGeometry x="400" y="140" width="86" height="60" as="geometry" />
        </mxCell>
        <mxCell id="AZUPCOziI6SF9PpO8oum-41" value="&lt;u&gt;Fkod&lt;/u&gt;" style="rhombus;whiteSpace=wrap;html=1;" vertex="1" parent="1">
          <mxGeometry x="190" y="210" width="80" height="80" as="geometry" />
        </mxCell>
        <mxCell id="AZUPCOziI6SF9PpO8oum-42" value="Nev" style="ellipse;whiteSpace=wrap;html=1;" vertex="1" parent="1">
          <mxGeometry x="280" y="300" width="86" height="60" as="geometry" />
        </mxCell>
        <mxCell id="AZUPCOziI6SF9PpO8oum-43" value="Eletkor" style="ellipse;whiteSpace=wrap;html=1;" vertex="1" parent="1">
          <mxGeometry x="400" y="300" width="86" height="60" as="geometry" />
        </mxCell>
        <mxCell id="AZUPCOziI6SF9PpO8oum-44" value="Vegzettseg" style="ellipse;whiteSpace=wrap;html=1;shadow=0;fillColor=#f5f5f5;fontColor=#333333;strokeColor=#666666;" vertex="1" parent="1">
          <mxGeometry x="520" y="300" width="86" height="60" as="geometry" />
        </mxCell>
        <mxCell id="AZUPCOziI6SF9PpO8oum-46" value="" style="endArrow=none;html=1;rounded=0;exitX=1;exitY=0.5;exitDx=0;exitDy=0;entryX=0;entryY=0.5;entryDx=0;entryDy=0;" edge="1" parent="1" source="AZUPCOziI6SF9PpO8oum-41" target="AZUPCOziI6SF9PpO8oum-45">
          <mxGeometry width="50" height="50" relative="1" as="geometry">
            <mxPoint x="280" y="230" as="sourcePoint" />
            <mxPoint x="330" y="180" as="targetPoint" />
          </mxGeometry>
        </mxCell>
        <mxCell id="AZUPCOziI6SF9PpO8oum-47" value="" style="endArrow=none;html=1;rounded=0;exitX=0.5;exitY=0;exitDx=0;exitDy=0;entryX=0.5;entryY=1;entryDx=0;entryDy=0;" edge="1" parent="1" source="AZUPCOziI6SF9PpO8oum-42" target="AZUPCOziI6SF9PpO8oum-45">
          <mxGeometry width="50" height="50" relative="1" as="geometry">
            <mxPoint x="350" y="290" as="sourcePoint" />
            <mxPoint x="400" y="240" as="targetPoint" />
          </mxGeometry>
        </mxCell>
        <mxCell id="AZUPCOziI6SF9PpO8oum-49" value="" style="endArrow=none;html=1;rounded=0;exitX=0.5;exitY=0;exitDx=0;exitDy=0;entryX=0.5;entryY=1;entryDx=0;entryDy=0;" edge="1" parent="1" source="AZUPCOziI6SF9PpO8oum-43" target="AZUPCOziI6SF9PpO8oum-45">
          <mxGeometry width="50" height="50" relative="1" as="geometry">
            <mxPoint x="570" y="260" as="sourcePoint" />
            <mxPoint x="450" y="240" as="targetPoint" />
          </mxGeometry>
        </mxCell>
        <mxCell id="AZUPCOziI6SF9PpO8oum-50" value="" style="endArrow=none;html=1;rounded=0;exitX=0.5;exitY=1;exitDx=0;exitDy=0;entryX=0.5;entryY=0;entryDx=0;entryDy=0;" edge="1" parent="1" source="AZUPCOziI6SF9PpO8oum-45" target="AZUPCOziI6SF9PpO8oum-73">
          <mxGeometry width="50" height="50" relative="1" as="geometry">
            <mxPoint x="550" y="250" as="sourcePoint" />
            <mxPoint x="560" y="280" as="targetPoint" />
          </mxGeometry>
        </mxCell>
        <mxCell id="AZUPCOziI6SF9PpO8oum-51" value="" style="rounded=0;whiteSpace=wrap;html=1;rotation=90;" vertex="1" parent="1">
          <mxGeometry x="285.5" y="400" width="75" height="40" as="geometry" />
        </mxCell>
        <mxCell id="AZUPCOziI6SF9PpO8oum-52" value="" style="rounded=0;whiteSpace=wrap;html=1;rotation=90;" vertex="1" parent="1">
          <mxGeometry x="405.5" y="400" width="75" height="40" as="geometry" />
        </mxCell>
        <mxCell id="AZUPCOziI6SF9PpO8oum-53" value="" style="endArrow=none;html=1;rounded=0;entryX=0.5;entryY=1;entryDx=0;entryDy=0;exitX=0;exitY=0.5;exitDx=0;exitDy=0;" edge="1" parent="1" source="AZUPCOziI6SF9PpO8oum-51" target="AZUPCOziI6SF9PpO8oum-42">
          <mxGeometry width="50" height="50" relative="1" as="geometry">
            <mxPoint x="190" y="590" as="sourcePoint" />
            <mxPoint x="240" y="540" as="targetPoint" />
          </mxGeometry>
        </mxCell>
        <mxCell id="AZUPCOziI6SF9PpO8oum-54" value="" style="endArrow=none;html=1;rounded=0;entryX=0.5;entryY=1;entryDx=0;entryDy=0;exitX=0;exitY=0.5;exitDx=0;exitDy=0;" edge="1" parent="1" source="AZUPCOziI6SF9PpO8oum-52" target="AZUPCOziI6SF9PpO8oum-43">
          <mxGeometry width="50" height="50" relative="1" as="geometry">
            <mxPoint x="420" y="610" as="sourcePoint" />
            <mxPoint x="470" y="560" as="targetPoint" />
          </mxGeometry>
        </mxCell>
        <mxCell id="AZUPCOziI6SF9PpO8oum-55" value="" style="endArrow=none;html=1;rounded=0;entryX=0.5;entryY=1;entryDx=0;entryDy=0;exitX=0.5;exitY=0;exitDx=0;exitDy=0;" edge="1" parent="1" source="AZUPCOziI6SF9PpO8oum-16" target="AZUPCOziI6SF9PpO8oum-14">
          <mxGeometry width="50" height="50" relative="1" as="geometry">
            <mxPoint x="-90" y="480" as="sourcePoint" />
            <mxPoint x="-60" y="420" as="targetPoint" />
          </mxGeometry>
        </mxCell>
        <mxCell id="AZUPCOziI6SF9PpO8oum-56" value="" style="endArrow=none;html=1;rounded=0;entryX=0.5;entryY=1;entryDx=0;entryDy=0;exitX=0.5;exitY=0;exitDx=0;exitDy=0;" edge="1" parent="1" source="AZUPCOziI6SF9PpO8oum-18" target="AZUPCOziI6SF9PpO8oum-14">
          <mxGeometry width="50" height="50" relative="1" as="geometry">
            <mxPoint y="470" as="sourcePoint" />
            <mxPoint x="50" y="420" as="targetPoint" />
          </mxGeometry>
        </mxCell>
        <mxCell id="AZUPCOziI6SF9PpO8oum-57" value="" style="ellipse;whiteSpace=wrap;html=1;" vertex="1" parent="1">
          <mxGeometry x="943" y="130" width="120" height="80" as="geometry" />
        </mxCell>
        <mxCell id="AZUPCOziI6SF9PpO8oum-58" value="Szakacs" style="ellipse;whiteSpace=wrap;html=1;" vertex="1" parent="1">
          <mxGeometry x="960" y="140" width="86" height="60" as="geometry" />
        </mxCell>
        <mxCell id="AZUPCOziI6SF9PpO8oum-59" value="&lt;u&gt;Szkod&lt;/u&gt;" style="rhombus;whiteSpace=wrap;html=1;" vertex="1" parent="1">
          <mxGeometry x="750" y="210" width="80" height="80" as="geometry" />
        </mxCell>
        <mxCell id="AZUPCOziI6SF9PpO8oum-60" value="Nev" style="ellipse;whiteSpace=wrap;html=1;" vertex="1" parent="1">
          <mxGeometry x="840" y="300" width="86" height="60" as="geometry" />
        </mxCell>
        <mxCell id="AZUPCOziI6SF9PpO8oum-61" value="Reszleg" style="ellipse;whiteSpace=wrap;html=1;" vertex="1" parent="1">
          <mxGeometry x="960" y="300" width="86" height="60" as="geometry" />
        </mxCell>
        <mxCell id="AZUPCOziI6SF9PpO8oum-62" value="Vegzettseg" style="ellipse;whiteSpace=wrap;html=1;shadow=0;fillColor=#f5f5f5;fontColor=#333333;strokeColor=#666666;" vertex="1" parent="1">
          <mxGeometry x="1080" y="300" width="86" height="60" as="geometry" />
        </mxCell>
        <mxCell id="AZUPCOziI6SF9PpO8oum-63" value="" style="endArrow=none;html=1;rounded=0;exitX=1;exitY=0.5;exitDx=0;exitDy=0;entryX=0;entryY=0.5;entryDx=0;entryDy=0;" edge="1" parent="1" source="AZUPCOziI6SF9PpO8oum-59" target="AZUPCOziI6SF9PpO8oum-57">
          <mxGeometry width="50" height="50" relative="1" as="geometry">
            <mxPoint x="840" y="230" as="sourcePoint" />
            <mxPoint x="890" y="180" as="targetPoint" />
          </mxGeometry>
        </mxCell>
        <mxCell id="AZUPCOziI6SF9PpO8oum-64" value="" style="endArrow=none;html=1;rounded=0;exitX=0.5;exitY=0;exitDx=0;exitDy=0;entryX=0.5;entryY=1;entryDx=0;entryDy=0;" edge="1" parent="1" source="AZUPCOziI6SF9PpO8oum-60" target="AZUPCOziI6SF9PpO8oum-57">
          <mxGeometry width="50" height="50" relative="1" as="geometry">
            <mxPoint x="910" y="290" as="sourcePoint" />
            <mxPoint x="960" y="240" as="targetPoint" />
          </mxGeometry>
        </mxCell>
        <mxCell id="AZUPCOziI6SF9PpO8oum-65" value="" style="endArrow=none;html=1;rounded=0;exitX=0.5;exitY=0;exitDx=0;exitDy=0;entryX=0.5;entryY=1;entryDx=0;entryDy=0;" edge="1" parent="1" source="AZUPCOziI6SF9PpO8oum-61" target="AZUPCOziI6SF9PpO8oum-57">
          <mxGeometry width="50" height="50" relative="1" as="geometry">
            <mxPoint x="1130" y="260" as="sourcePoint" />
            <mxPoint x="1010" y="240" as="targetPoint" />
          </mxGeometry>
        </mxCell>
        <mxCell id="AZUPCOziI6SF9PpO8oum-66" value="" style="endArrow=none;html=1;rounded=0;exitX=0.5;exitY=1;exitDx=0;exitDy=0;entryX=0.5;entryY=0;entryDx=0;entryDy=0;" edge="1" parent="1" source="AZUPCOziI6SF9PpO8oum-57" target="AZUPCOziI6SF9PpO8oum-77">
          <mxGeometry width="50" height="50" relative="1" as="geometry">
            <mxPoint x="1110" y="250" as="sourcePoint" />
            <mxPoint x="1130" y="250" as="targetPoint" />
          </mxGeometry>
        </mxCell>
        <mxCell id="AZUPCOziI6SF9PpO8oum-67" value="" style="rounded=0;whiteSpace=wrap;html=1;rotation=90;" vertex="1" parent="1">
          <mxGeometry x="845.5" y="400" width="75" height="40" as="geometry" />
        </mxCell>
        <mxCell id="AZUPCOziI6SF9PpO8oum-68" value="" style="rounded=0;whiteSpace=wrap;html=1;rotation=90;" vertex="1" parent="1">
          <mxGeometry x="965.5" y="400" width="75" height="40" as="geometry" />
        </mxCell>
        <mxCell id="AZUPCOziI6SF9PpO8oum-69" value="" style="endArrow=none;html=1;rounded=0;entryX=0.5;entryY=1;entryDx=0;entryDy=0;exitX=0;exitY=0.5;exitDx=0;exitDy=0;" edge="1" parent="1" source="AZUPCOziI6SF9PpO8oum-67" target="AZUPCOziI6SF9PpO8oum-60">
          <mxGeometry width="50" height="50" relative="1" as="geometry">
            <mxPoint x="750" y="590" as="sourcePoint" />
            <mxPoint x="800" y="540" as="targetPoint" />
          </mxGeometry>
        </mxCell>
        <mxCell id="AZUPCOziI6SF9PpO8oum-70" value="" style="endArrow=none;html=1;rounded=0;entryX=0.5;entryY=1;entryDx=0;entryDy=0;exitX=0;exitY=0.5;exitDx=0;exitDy=0;" edge="1" parent="1" source="AZUPCOziI6SF9PpO8oum-68" target="AZUPCOziI6SF9PpO8oum-61">
          <mxGeometry width="50" height="50" relative="1" as="geometry">
            <mxPoint x="980" y="610" as="sourcePoint" />
            <mxPoint x="1030" y="560" as="targetPoint" />
          </mxGeometry>
        </mxCell>
        <mxCell id="AZUPCOziI6SF9PpO8oum-71" value="" style="rounded=0;whiteSpace=wrap;html=1;rotation=90;" vertex="1" parent="1">
          <mxGeometry x="525.5" y="400" width="75" height="40" as="geometry" />
        </mxCell>
        <mxCell id="AZUPCOziI6SF9PpO8oum-72" value="" style="endArrow=none;html=1;rounded=0;entryX=0.5;entryY=1;entryDx=0;entryDy=0;exitX=0;exitY=0.5;exitDx=0;exitDy=0;" edge="1" parent="1" source="AZUPCOziI6SF9PpO8oum-71" target="AZUPCOziI6SF9PpO8oum-73">
          <mxGeometry width="50" height="50" relative="1" as="geometry">
            <mxPoint x="500" y="390" as="sourcePoint" />
            <mxPoint x="520" y="383" as="targetPoint" />
          </mxGeometry>
        </mxCell>
        <mxCell id="AZUPCOziI6SF9PpO8oum-75" value="E-F&lt;br&gt;........" style="rhombus;whiteSpace=wrap;html=1;fontStyle=0" vertex="1" parent="1">
          <mxGeometry x="630" y="210" width="80" height="80" as="geometry" />
        </mxCell>
        <mxCell id="AZUPCOziI6SF9PpO8oum-76" value="" style="endArrow=none;html=1;rounded=0;exitX=1;exitY=0.5;exitDx=0;exitDy=0;entryX=0;entryY=0.5;entryDx=0;entryDy=0;" edge="1" parent="1" source="AZUPCOziI6SF9PpO8oum-45" target="AZUPCOziI6SF9PpO8oum-75">
          <mxGeometry width="50" height="50" relative="1" as="geometry">
            <mxPoint x="550" y="250" as="sourcePoint" />
            <mxPoint x="600" y="200" as="targetPoint" />
          </mxGeometry>
        </mxCell>
        <mxCell id="AZUPCOziI6SF9PpO8oum-78" value="" style="rounded=0;whiteSpace=wrap;html=1;rotation=90;" vertex="1" parent="1">
          <mxGeometry x="1085.5" y="400" width="75" height="40" as="geometry" />
        </mxCell>
        <mxCell id="AZUPCOziI6SF9PpO8oum-79" value="" style="endArrow=none;html=1;rounded=0;entryX=0.5;entryY=1;entryDx=0;entryDy=0;exitX=0;exitY=0.5;exitDx=0;exitDy=0;" edge="1" parent="1" source="AZUPCOziI6SF9PpO8oum-78" target="AZUPCOziI6SF9PpO8oum-77">
          <mxGeometry width="50" height="50" relative="1" as="geometry">
            <mxPoint x="1030" y="540" as="sourcePoint" />
            <mxPoint x="1080" y="490" as="targetPoint" />
          </mxGeometry>
        </mxCell>
        <mxCell id="AZUPCOziI6SF9PpO8oum-84" value="" style="endArrow=none;dashed=1;html=1;rounded=0;entryX=0.5;entryY=1;entryDx=0;entryDy=0;" edge="1" parent="1" target="AZUPCOziI6SF9PpO8oum-75">
          <mxGeometry width="50" height="50" relative="1" as="geometry">
            <mxPoint x="670" y="720" as="sourcePoint" />
            <mxPoint x="670" y="580" as="targetPoint" />
          </mxGeometry>
        </mxCell>
        <mxCell id="AZUPCOziI6SF9PpO8oum-85" value="" style="endArrow=none;dashed=1;html=1;rounded=0;" edge="1" parent="1">
          <mxGeometry width="50" height="50" relative="1" as="geometry">
            <mxPoint x="-250" y="720" as="sourcePoint" />
            <mxPoint x="670" y="720" as="targetPoint" />
          </mxGeometry>
        </mxCell>
        <mxCell id="AZUPCOziI6SF9PpO8oum-86" value="" style="endArrow=none;dashed=1;html=1;rounded=0;entryX=0.5;entryY=1;entryDx=0;entryDy=0;verticalAlign=middle;" edge="1" parent="1" target="AZUPCOziI6SF9PpO8oum-3">
          <mxGeometry width="50" height="50" relative="1" as="geometry">
            <mxPoint x="-250" y="720" as="sourcePoint" />
            <mxPoint x="-360" y="640" as="targetPoint" />
          </mxGeometry>
        </mxCell>
        <mxCell id="AZUPCOziI6SF9PpO8oum-87" value="" style="endArrow=classic;html=1;rounded=0;entryX=0.5;entryY=1;entryDx=0;entryDy=0;" edge="1" parent="1" target="AZUPCOziI6SF9PpO8oum-3">
          <mxGeometry width="50" height="50" relative="1" as="geometry">
            <mxPoint x="-250" y="300" as="sourcePoint" />
            <mxPoint x="-330" y="320" as="targetPoint" />
          </mxGeometry>
        </mxCell>
        <mxCell id="AZUPCOziI6SF9PpO8oum-88" value="Vegzettseg" style="ellipse;whiteSpace=wrap;html=1;shadow=0;fillColor=#f5f5f5;fontColor=#333333;strokeColor=#666666;" vertex="1" parent="1">
          <mxGeometry x="1673" y="285" width="100" height="70" as="geometry" />
        </mxCell>
        <mxCell id="AZUPCOziI6SF9PpO8oum-89" value="" style="ellipse;whiteSpace=wrap;html=1;" vertex="1" parent="1">
          <mxGeometry x="1543" y="120" width="120" height="80" as="geometry" />
        </mxCell>
        <mxCell id="AZUPCOziI6SF9PpO8oum-90" value="Gyakornok" style="ellipse;whiteSpace=wrap;html=1;" vertex="1" parent="1">
          <mxGeometry x="1560" y="130" width="86" height="60" as="geometry" />
        </mxCell>
        <mxCell id="AZUPCOziI6SF9PpO8oum-91" value="&lt;u&gt;Gykod&lt;/u&gt;" style="rhombus;whiteSpace=wrap;html=1;" vertex="1" parent="1">
          <mxGeometry x="1350" y="200" width="80" height="80" as="geometry" />
        </mxCell>
        <mxCell id="AZUPCOziI6SF9PpO8oum-92" value="Nev" style="ellipse;whiteSpace=wrap;html=1;" vertex="1" parent="1">
          <mxGeometry x="1440" y="290" width="86" height="60" as="geometry" />
        </mxCell>
        <mxCell id="AZUPCOziI6SF9PpO8oum-93" value="Gyakorlat" style="ellipse;whiteSpace=wrap;html=1;" vertex="1" parent="1">
          <mxGeometry x="1560" y="290" width="86" height="60" as="geometry" />
        </mxCell>
        <mxCell id="AZUPCOziI6SF9PpO8oum-94" value="Muszak" style="ellipse;whiteSpace=wrap;html=1;shadow=0;fillColor=#f5f5f5;fontColor=#333333;strokeColor=#666666;" vertex="1" parent="1">
          <mxGeometry x="1680" y="290" width="86" height="60" as="geometry" />
        </mxCell>
        <mxCell id="AZUPCOziI6SF9PpO8oum-95" value="" style="endArrow=none;html=1;rounded=0;exitX=1;exitY=0.5;exitDx=0;exitDy=0;entryX=0;entryY=0.5;entryDx=0;entryDy=0;" edge="1" parent="1" source="AZUPCOziI6SF9PpO8oum-91" target="AZUPCOziI6SF9PpO8oum-89">
          <mxGeometry width="50" height="50" relative="1" as="geometry">
            <mxPoint x="1440" y="220" as="sourcePoint" />
            <mxPoint x="1490" y="170" as="targetPoint" />
          </mxGeometry>
        </mxCell>
        <mxCell id="AZUPCOziI6SF9PpO8oum-96" value="" style="endArrow=none;html=1;rounded=0;exitX=0.5;exitY=0;exitDx=0;exitDy=0;entryX=0.5;entryY=1;entryDx=0;entryDy=0;" edge="1" parent="1" source="AZUPCOziI6SF9PpO8oum-92" target="AZUPCOziI6SF9PpO8oum-89">
          <mxGeometry width="50" height="50" relative="1" as="geometry">
            <mxPoint x="1510" y="280" as="sourcePoint" />
            <mxPoint x="1560" y="230" as="targetPoint" />
          </mxGeometry>
        </mxCell>
        <mxCell id="AZUPCOziI6SF9PpO8oum-97" value="" style="endArrow=none;html=1;rounded=0;exitX=0.5;exitY=0;exitDx=0;exitDy=0;entryX=0.5;entryY=1;entryDx=0;entryDy=0;" edge="1" parent="1" source="AZUPCOziI6SF9PpO8oum-93" target="AZUPCOziI6SF9PpO8oum-89">
          <mxGeometry width="50" height="50" relative="1" as="geometry">
            <mxPoint x="1730" y="250" as="sourcePoint" />
            <mxPoint x="1610" y="230" as="targetPoint" />
          </mxGeometry>
        </mxCell>
        <mxCell id="AZUPCOziI6SF9PpO8oum-98" value="" style="endArrow=none;html=1;rounded=0;exitX=0.5;exitY=1;exitDx=0;exitDy=0;entryX=0.5;entryY=0;entryDx=0;entryDy=0;" edge="1" parent="1" source="AZUPCOziI6SF9PpO8oum-89" target="AZUPCOziI6SF9PpO8oum-88">
          <mxGeometry width="50" height="50" relative="1" as="geometry">
            <mxPoint x="1710" y="240" as="sourcePoint" />
            <mxPoint x="1730" y="240" as="targetPoint" />
          </mxGeometry>
        </mxCell>
        <mxCell id="AZUPCOziI6SF9PpO8oum-99" value="" style="rounded=0;whiteSpace=wrap;html=1;rotation=90;" vertex="1" parent="1">
          <mxGeometry x="1445.5" y="390" width="75" height="40" as="geometry" />
        </mxCell>
        <mxCell id="AZUPCOziI6SF9PpO8oum-101" value="" style="endArrow=none;html=1;rounded=0;entryX=0.5;entryY=1;entryDx=0;entryDy=0;exitX=0;exitY=0.5;exitDx=0;exitDy=0;" edge="1" parent="1" source="AZUPCOziI6SF9PpO8oum-99" target="AZUPCOziI6SF9PpO8oum-92">
          <mxGeometry width="50" height="50" relative="1" as="geometry">
            <mxPoint x="1350" y="580" as="sourcePoint" />
            <mxPoint x="1400" y="530" as="targetPoint" />
          </mxGeometry>
        </mxCell>
        <mxCell id="AZUPCOziI6SF9PpO8oum-102" value="" style="endArrow=none;html=1;rounded=0;entryX=0.5;entryY=1;entryDx=0;entryDy=0;exitX=0.5;exitY=0;exitDx=0;exitDy=0;" edge="1" parent="1" source="AZUPCOziI6SF9PpO8oum-113" target="AZUPCOziI6SF9PpO8oum-93">
          <mxGeometry width="50" height="50" relative="1" as="geometry">
            <mxPoint x="1603" y="372.5" as="sourcePoint" />
            <mxPoint x="1630" y="550" as="targetPoint" />
          </mxGeometry>
        </mxCell>
        <mxCell id="AZUPCOziI6SF9PpO8oum-103" value="" style="rounded=0;whiteSpace=wrap;html=1;rotation=90;" vertex="1" parent="1">
          <mxGeometry x="1685.5" y="390" width="75" height="40" as="geometry" />
        </mxCell>
        <mxCell id="AZUPCOziI6SF9PpO8oum-104" value="" style="endArrow=none;html=1;rounded=0;entryX=0.5;entryY=1;entryDx=0;entryDy=0;exitX=0;exitY=0.5;exitDx=0;exitDy=0;" edge="1" parent="1" source="AZUPCOziI6SF9PpO8oum-103" target="AZUPCOziI6SF9PpO8oum-88">
          <mxGeometry width="50" height="50" relative="1" as="geometry">
            <mxPoint x="1630" y="530" as="sourcePoint" />
            <mxPoint x="1680" y="480" as="targetPoint" />
          </mxGeometry>
        </mxCell>
        <mxCell id="AZUPCOziI6SF9PpO8oum-105" value="&lt;span&gt;E-Sz&lt;/span&gt;&lt;div&gt;&lt;span&gt;........&lt;/span&gt;&lt;/div&gt;" style="rhombus;whiteSpace=wrap;html=1;fontStyle=0" vertex="1" parent="1">
          <mxGeometry x="1195" y="210" width="80" height="80" as="geometry" />
        </mxCell>
        <mxCell id="AZUPCOziI6SF9PpO8oum-106" value="" style="endArrow=none;html=1;rounded=0;exitX=1;exitY=0.5;exitDx=0;exitDy=0;entryX=0;entryY=0.5;entryDx=0;entryDy=0;" edge="1" parent="1" source="AZUPCOziI6SF9PpO8oum-57" target="AZUPCOziI6SF9PpO8oum-105">
          <mxGeometry width="50" height="50" relative="1" as="geometry">
            <mxPoint x="1090" y="320" as="sourcePoint" />
            <mxPoint x="1140" y="270" as="targetPoint" />
          </mxGeometry>
        </mxCell>
        <mxCell id="AZUPCOziI6SF9PpO8oum-107" value="" style="endArrow=none;dashed=1;html=1;rounded=0;entryX=0.5;entryY=1;entryDx=0;entryDy=0;" edge="1" parent="1">
          <mxGeometry width="50" height="50" relative="1" as="geometry">
            <mxPoint x="1234" y="800" as="sourcePoint" />
            <mxPoint x="1234.4099999999999" y="290" as="targetPoint" />
          </mxGeometry>
        </mxCell>
        <mxCell id="AZUPCOziI6SF9PpO8oum-108" value="" style="endArrow=none;dashed=1;html=1;rounded=0;" edge="1" parent="1">
          <mxGeometry width="50" height="50" relative="1" as="geometry">
            <mxPoint x="-360" y="800" as="sourcePoint" />
            <mxPoint x="1230" y="800" as="targetPoint" />
          </mxGeometry>
        </mxCell>
        <mxCell id="AZUPCOziI6SF9PpO8oum-109" value="" style="endArrow=none;dashed=1;html=1;rounded=0;verticalAlign=middle;" edge="1" parent="1">
          <mxGeometry width="50" height="50" relative="1" as="geometry">
            <mxPoint x="-360" y="800" as="sourcePoint" />
            <mxPoint x="-360" y="280" as="targetPoint" />
          </mxGeometry>
        </mxCell>
        <mxCell id="AZUPCOziI6SF9PpO8oum-110" value="" style="endArrow=none;dashed=1;html=1;rounded=0;entryX=0.392;entryY=0.917;entryDx=0;entryDy=0;entryPerimeter=0;" edge="1" parent="1" target="AZUPCOziI6SF9PpO8oum-3">
          <mxGeometry width="50" height="50" relative="1" as="geometry">
            <mxPoint x="-360" y="283" as="sourcePoint" />
            <mxPoint x="-290" y="285" as="targetPoint" />
          </mxGeometry>
        </mxCell>
        <mxCell id="AZUPCOziI6SF9PpO8oum-112" value="" style="endArrow=classic;html=1;rounded=0;entryX=0.387;entryY=0.904;entryDx=0;entryDy=0;entryPerimeter=0;" edge="1" parent="1" target="AZUPCOziI6SF9PpO8oum-3">
          <mxGeometry width="50" height="50" relative="1" as="geometry">
            <mxPoint x="-270" y="282" as="sourcePoint" />
            <mxPoint x="-240" y="300" as="targetPoint" />
          </mxGeometry>
        </mxCell>
        <mxCell id="AZUPCOziI6SF9PpO8oum-113" value="Kezdete" style="ellipse;whiteSpace=wrap;html=1;" vertex="1" parent="1">
          <mxGeometry x="1500" y="500" width="86" height="60" as="geometry" />
        </mxCell>
        <mxCell id="AZUPCOziI6SF9PpO8oum-114" value="Vege" style="ellipse;whiteSpace=wrap;html=1;" vertex="1" parent="1">
          <mxGeometry x="1620" y="500" width="86" height="60" as="geometry" />
        </mxCell>
        <mxCell id="AZUPCOziI6SF9PpO8oum-115" value="" style="endArrow=none;html=1;rounded=0;entryX=0.5;entryY=1;entryDx=0;entryDy=0;exitX=0.5;exitY=0;exitDx=0;exitDy=0;" edge="1" parent="1" source="AZUPCOziI6SF9PpO8oum-114" target="AZUPCOziI6SF9PpO8oum-93">
          <mxGeometry width="50" height="50" relative="1" as="geometry">
            <mxPoint x="1590" y="470" as="sourcePoint" />
            <mxPoint x="1640" y="420" as="targetPoint" />
          </mxGeometry>
        </mxCell>
        <mxCell id="AZUPCOziI6SF9PpO8oum-116" value="" style="rounded=0;whiteSpace=wrap;html=1;rotation=90;" vertex="1" parent="1">
          <mxGeometry x="1505.5" y="600" width="75" height="40" as="geometry" />
        </mxCell>
        <mxCell id="AZUPCOziI6SF9PpO8oum-117" value="" style="rounded=0;whiteSpace=wrap;html=1;rotation=90;" vertex="1" parent="1">
          <mxGeometry x="1625.5" y="600" width="75" height="40" as="geometry" />
        </mxCell>
        <mxCell id="AZUPCOziI6SF9PpO8oum-118" value="" style="endArrow=none;html=1;rounded=0;entryX=0.5;entryY=1;entryDx=0;entryDy=0;exitX=0;exitY=0.5;exitDx=0;exitDy=0;" edge="1" parent="1" source="AZUPCOziI6SF9PpO8oum-116" target="AZUPCOziI6SF9PpO8oum-113">
          <mxGeometry width="50" height="50" relative="1" as="geometry">
            <mxPoint x="1400" y="680" as="sourcePoint" />
            <mxPoint x="1450" y="630" as="targetPoint" />
          </mxGeometry>
        </mxCell>
        <mxCell id="AZUPCOziI6SF9PpO8oum-119" value="" style="endArrow=none;html=1;rounded=0;entryX=0.5;entryY=1;entryDx=0;entryDy=0;exitX=0;exitY=0.5;exitDx=0;exitDy=0;" edge="1" parent="1" source="AZUPCOziI6SF9PpO8oum-117" target="AZUPCOziI6SF9PpO8oum-114">
          <mxGeometry width="50" height="50" relative="1" as="geometry">
            <mxPoint x="1590" y="720" as="sourcePoint" />
            <mxPoint x="1640" y="670" as="targetPoint" />
          </mxGeometry>
        </mxCell>
        <mxCell id="AZUPCOziI6SF9PpO8oum-120" value="&lt;span&gt;E-Gy&lt;/span&gt;&lt;div&gt;&lt;span&gt;........&lt;/span&gt;&lt;/div&gt;" style="rhombus;whiteSpace=wrap;html=1;fontStyle=0" vertex="1" parent="1">
          <mxGeometry x="1790" y="200" width="80" height="80" as="geometry" />
        </mxCell>
        <mxCell id="AZUPCOziI6SF9PpO8oum-121" value="" style="endArrow=none;html=1;rounded=0;exitX=1;exitY=0.5;exitDx=0;exitDy=0;entryX=0;entryY=0.5;entryDx=0;entryDy=0;" edge="1" parent="1" source="AZUPCOziI6SF9PpO8oum-89" target="AZUPCOziI6SF9PpO8oum-120">
          <mxGeometry width="50" height="50" relative="1" as="geometry">
            <mxPoint x="1710" y="250" as="sourcePoint" />
            <mxPoint x="1760" y="200" as="targetPoint" />
          </mxGeometry>
        </mxCell>
        <mxCell id="AZUPCOziI6SF9PpO8oum-122" value="" style="endArrow=none;dashed=1;html=1;rounded=0;entryX=0.5;entryY=1;entryDx=0;entryDy=0;" edge="1" parent="1" target="AZUPCOziI6SF9PpO8oum-120">
          <mxGeometry width="50" height="50" relative="1" as="geometry">
            <mxPoint x="1830" y="840" as="sourcePoint" />
            <mxPoint x="1830.4099999999999" y="300" as="targetPoint" />
          </mxGeometry>
        </mxCell>
        <mxCell id="AZUPCOziI6SF9PpO8oum-123" value="" style="endArrow=none;dashed=1;html=1;rounded=0;" edge="1" parent="1">
          <mxGeometry width="50" height="50" relative="1" as="geometry">
            <mxPoint x="-410" y="840" as="sourcePoint" />
            <mxPoint x="1830" y="840" as="targetPoint" />
          </mxGeometry>
        </mxCell>
        <mxCell id="AZUPCOziI6SF9PpO8oum-124" value="" style="endArrow=none;dashed=1;html=1;rounded=0;verticalAlign=middle;" edge="1" parent="1">
          <mxGeometry width="50" height="50" relative="1" as="geometry">
            <mxPoint x="-410" y="840" as="sourcePoint" />
            <mxPoint x="-410" y="270" as="targetPoint" />
          </mxGeometry>
        </mxCell>
        <mxCell id="AZUPCOziI6SF9PpO8oum-125" value="" style="endArrow=none;dashed=1;html=1;rounded=0;entryX=0;entryY=1;entryDx=0;entryDy=0;" edge="1" parent="1" target="AZUPCOziI6SF9PpO8oum-3">
          <mxGeometry width="50" height="50" relative="1" as="geometry">
            <mxPoint x="-410" y="270" as="sourcePoint" />
            <mxPoint x="-309" y="270" as="targetPoint" />
          </mxGeometry>
        </mxCell>
        <mxCell id="AZUPCOziI6SF9PpO8oum-126" value="" style="endArrow=classic;html=1;rounded=0;entryX=0;entryY=1;entryDx=0;entryDy=0;" edge="1" parent="1" target="AZUPCOziI6SF9PpO8oum-3">
          <mxGeometry width="50" height="50" relative="1" as="geometry">
            <mxPoint x="-280" y="270" as="sourcePoint" />
            <mxPoint x="-249" y="292" as="targetPoint" />
          </mxGeometry>
        </mxCell>
        <mxCell id="AZUPCOziI6SF9PpO8oum-127" value="" style="ellipse;whiteSpace=wrap;html=1;" vertex="1" parent="1">
          <mxGeometry x="2160" y="120" width="120" height="80" as="geometry" />
        </mxCell>
        <mxCell id="AZUPCOziI6SF9PpO8oum-128" value="&lt;u&gt;Vkod&lt;/u&gt;" style="rhombus;whiteSpace=wrap;html=1;" vertex="1" parent="1">
          <mxGeometry x="1950" y="200" width="80" height="80" as="geometry" />
        </mxCell>
        <mxCell id="AZUPCOziI6SF9PpO8oum-129" value="" style="rounded=0;whiteSpace=wrap;html=1;rotation=90;" vertex="1" parent="1">
          <mxGeometry x="2052.5" y="390" width="75" height="40" as="geometry" />
        </mxCell>
        <mxCell id="AZUPCOziI6SF9PpO8oum-130" value="Vendeg" style="ellipse;whiteSpace=wrap;html=1;perimeterSpacing=0;strokeColor=default;" vertex="1" parent="1">
          <mxGeometry x="2177" y="130" width="86" height="60" as="geometry" />
        </mxCell>
        <mxCell id="AZUPCOziI6SF9PpO8oum-131" value="Eletkor" style="ellipse;whiteSpace=wrap;html=1;" vertex="1" parent="1">
          <mxGeometry x="2047" y="290" width="86" height="60" as="geometry" />
        </mxCell>
        <mxCell id="AZUPCOziI6SF9PpO8oum-132" value="Cim" style="ellipse;whiteSpace=wrap;html=1;" vertex="1" parent="1">
          <mxGeometry x="2177" y="290" width="86" height="60" as="geometry" />
        </mxCell>
        <mxCell id="AZUPCOziI6SF9PpO8oum-133" value="Nev" style="ellipse;whiteSpace=wrap;html=1;" vertex="1" parent="1">
          <mxGeometry x="2307" y="290" width="86" height="60" as="geometry" />
        </mxCell>
        <mxCell id="AZUPCOziI6SF9PpO8oum-134" value="Varos" style="ellipse;whiteSpace=wrap;html=1;" vertex="1" parent="1">
          <mxGeometry x="2074" y="490" width="86" height="60" as="geometry" />
        </mxCell>
        <mxCell id="AZUPCOziI6SF9PpO8oum-135" value="Utca" style="ellipse;whiteSpace=wrap;html=1;" vertex="1" parent="1">
          <mxGeometry x="2177" y="490" width="86" height="60" as="geometry" />
        </mxCell>
        <mxCell id="AZUPCOziI6SF9PpO8oum-136" value="Hazszam" style="ellipse;whiteSpace=wrap;html=1;" vertex="1" parent="1">
          <mxGeometry x="2280" y="490" width="86" height="60" as="geometry" />
        </mxCell>
        <mxCell id="AZUPCOziI6SF9PpO8oum-137" value="" style="rounded=0;whiteSpace=wrap;html=1;rotation=90;" vertex="1" parent="1">
          <mxGeometry x="2312.5" y="390" width="75" height="40" as="geometry" />
        </mxCell>
        <mxCell id="AZUPCOziI6SF9PpO8oum-138" value="" style="rounded=0;whiteSpace=wrap;html=1;rotation=90;" vertex="1" parent="1">
          <mxGeometry x="2079.5" y="590" width="75" height="40" as="geometry" />
        </mxCell>
        <mxCell id="AZUPCOziI6SF9PpO8oum-139" value="" style="rounded=0;whiteSpace=wrap;html=1;rotation=90;" vertex="1" parent="1">
          <mxGeometry x="2182.5" y="590" width="75" height="40" as="geometry" />
        </mxCell>
        <mxCell id="AZUPCOziI6SF9PpO8oum-140" value="" style="rounded=0;whiteSpace=wrap;html=1;rotation=90;" vertex="1" parent="1">
          <mxGeometry x="2285.5" y="590" width="75" height="40" as="geometry" />
        </mxCell>
        <mxCell id="AZUPCOziI6SF9PpO8oum-141" value="" style="endArrow=none;html=1;rounded=0;exitX=0.5;exitY=0;exitDx=0;exitDy=0;entryX=0.5;entryY=1;entryDx=0;entryDy=0;" edge="1" parent="1" source="AZUPCOziI6SF9PpO8oum-131" target="AZUPCOziI6SF9PpO8oum-127">
          <mxGeometry width="50" height="50" relative="1" as="geometry">
            <mxPoint x="2220" y="270" as="sourcePoint" />
            <mxPoint x="2270" y="220" as="targetPoint" />
          </mxGeometry>
        </mxCell>
        <mxCell id="AZUPCOziI6SF9PpO8oum-142" value="" style="endArrow=none;html=1;rounded=0;" edge="1" parent="1" source="AZUPCOziI6SF9PpO8oum-132">
          <mxGeometry width="50" height="50" relative="1" as="geometry">
            <mxPoint x="2210" y="280" as="sourcePoint" />
            <mxPoint x="2220" y="200" as="targetPoint" />
          </mxGeometry>
        </mxCell>
        <mxCell id="AZUPCOziI6SF9PpO8oum-143" value="" style="endArrow=none;html=1;rounded=0;entryX=0.5;entryY=1;entryDx=0;entryDy=0;exitX=0.5;exitY=0;exitDx=0;exitDy=0;" edge="1" parent="1" source="AZUPCOziI6SF9PpO8oum-133" target="AZUPCOziI6SF9PpO8oum-127">
          <mxGeometry width="50" height="50" relative="1" as="geometry">
            <mxPoint x="2280" y="270" as="sourcePoint" />
            <mxPoint x="2330" y="220" as="targetPoint" />
          </mxGeometry>
        </mxCell>
        <mxCell id="AZUPCOziI6SF9PpO8oum-144" value="" style="endArrow=none;html=1;rounded=0;entryX=0.5;entryY=1;entryDx=0;entryDy=0;exitX=0;exitY=0.5;exitDx=0;exitDy=0;" edge="1" parent="1" source="AZUPCOziI6SF9PpO8oum-129" target="AZUPCOziI6SF9PpO8oum-131">
          <mxGeometry width="50" height="50" relative="1" as="geometry">
            <mxPoint x="1970" y="430" as="sourcePoint" />
            <mxPoint x="2020" y="380" as="targetPoint" />
          </mxGeometry>
        </mxCell>
        <mxCell id="AZUPCOziI6SF9PpO8oum-145" value="" style="endArrow=none;html=1;rounded=0;entryX=0.5;entryY=1;entryDx=0;entryDy=0;exitX=0.5;exitY=0;exitDx=0;exitDy=0;" edge="1" parent="1" source="AZUPCOziI6SF9PpO8oum-135" target="AZUPCOziI6SF9PpO8oum-132">
          <mxGeometry width="50" height="50" relative="1" as="geometry">
            <mxPoint x="2210" y="440" as="sourcePoint" />
            <mxPoint x="2260" y="390" as="targetPoint" />
          </mxGeometry>
        </mxCell>
        <mxCell id="AZUPCOziI6SF9PpO8oum-146" value="" style="endArrow=none;html=1;rounded=0;entryX=0.5;entryY=1;entryDx=0;entryDy=0;exitX=0;exitY=0.5;exitDx=0;exitDy=0;" edge="1" parent="1" source="AZUPCOziI6SF9PpO8oum-137" target="AZUPCOziI6SF9PpO8oum-133">
          <mxGeometry width="50" height="50" relative="1" as="geometry">
            <mxPoint x="2260" y="450" as="sourcePoint" />
            <mxPoint x="2310" y="400" as="targetPoint" />
          </mxGeometry>
        </mxCell>
        <mxCell id="AZUPCOziI6SF9PpO8oum-147" value="" style="endArrow=none;html=1;rounded=0;entryX=0.5;entryY=1;entryDx=0;entryDy=0;exitX=0;exitY=0.5;exitDx=0;exitDy=0;" edge="1" parent="1" source="AZUPCOziI6SF9PpO8oum-138" target="AZUPCOziI6SF9PpO8oum-134">
          <mxGeometry width="50" height="50" relative="1" as="geometry">
            <mxPoint x="1990" y="530" as="sourcePoint" />
            <mxPoint x="2040" y="480" as="targetPoint" />
          </mxGeometry>
        </mxCell>
        <mxCell id="AZUPCOziI6SF9PpO8oum-148" value="" style="endArrow=none;html=1;rounded=0;entryX=0.5;entryY=1;entryDx=0;entryDy=0;exitX=0;exitY=0.5;exitDx=0;exitDy=0;" edge="1" parent="1" source="AZUPCOziI6SF9PpO8oum-139" target="AZUPCOziI6SF9PpO8oum-135">
          <mxGeometry width="50" height="50" relative="1" as="geometry">
            <mxPoint x="2130" y="670" as="sourcePoint" />
            <mxPoint x="2180" y="620" as="targetPoint" />
          </mxGeometry>
        </mxCell>
        <mxCell id="AZUPCOziI6SF9PpO8oum-149" value="" style="endArrow=none;html=1;rounded=0;entryX=0.5;entryY=1;entryDx=0;entryDy=0;exitX=0;exitY=0.5;exitDx=0;exitDy=0;" edge="1" parent="1" source="AZUPCOziI6SF9PpO8oum-140" target="AZUPCOziI6SF9PpO8oum-136">
          <mxGeometry width="50" height="50" relative="1" as="geometry">
            <mxPoint x="2370" y="680" as="sourcePoint" />
            <mxPoint x="2420" y="630" as="targetPoint" />
          </mxGeometry>
        </mxCell>
        <mxCell id="AZUPCOziI6SF9PpO8oum-150" value="" style="endArrow=none;html=1;rounded=0;entryX=0;entryY=0.5;entryDx=0;entryDy=0;exitX=1;exitY=0.5;exitDx=0;exitDy=0;" edge="1" parent="1" source="AZUPCOziI6SF9PpO8oum-128" target="AZUPCOziI6SF9PpO8oum-127">
          <mxGeometry width="50" height="50" relative="1" as="geometry">
            <mxPoint x="2065" y="230" as="sourcePoint" />
            <mxPoint x="2115" y="180" as="targetPoint" />
          </mxGeometry>
        </mxCell>
        <mxCell id="AZUPCOziI6SF9PpO8oum-151" value="" style="endArrow=none;html=1;rounded=0;entryX=0.5;entryY=1;entryDx=0;entryDy=0;exitX=0.5;exitY=0;exitDx=0;exitDy=0;" edge="1" parent="1" source="AZUPCOziI6SF9PpO8oum-134" target="AZUPCOziI6SF9PpO8oum-132">
          <mxGeometry width="50" height="50" relative="1" as="geometry">
            <mxPoint x="2150" y="470" as="sourcePoint" />
            <mxPoint x="2180" y="410" as="targetPoint" />
          </mxGeometry>
        </mxCell>
        <mxCell id="AZUPCOziI6SF9PpO8oum-152" value="" style="endArrow=none;html=1;rounded=0;entryX=0.5;entryY=1;entryDx=0;entryDy=0;exitX=0.5;exitY=0;exitDx=0;exitDy=0;" edge="1" parent="1" source="AZUPCOziI6SF9PpO8oum-136" target="AZUPCOziI6SF9PpO8oum-132">
          <mxGeometry width="50" height="50" relative="1" as="geometry">
            <mxPoint x="2240" y="460" as="sourcePoint" />
            <mxPoint x="2290" y="410" as="targetPoint" />
          </mxGeometry>
        </mxCell>
        <mxCell id="AZUPCOziI6SF9PpO8oum-156" value="" style="ellipse;whiteSpace=wrap;html=1;" vertex="1" parent="1">
          <mxGeometry x="2690" y="120" width="120" height="80" as="geometry" />
        </mxCell>
        <mxCell id="AZUPCOziI6SF9PpO8oum-157" value="&lt;u&gt;E_V_V&lt;/u&gt;" style="rhombus;whiteSpace=wrap;html=1;" vertex="1" parent="1">
          <mxGeometry x="2480" y="200" width="80" height="80" as="geometry" />
        </mxCell>
        <mxCell id="AZUPCOziI6SF9PpO8oum-158" value="" style="rounded=0;whiteSpace=wrap;html=1;rotation=90;" vertex="1" parent="1">
          <mxGeometry x="2645.5" y="390" width="75" height="40" as="geometry" />
        </mxCell>
        <mxCell id="AZUPCOziI6SF9PpO8oum-159" value="Rendeles" style="ellipse;whiteSpace=wrap;html=1;perimeterSpacing=0;strokeColor=default;" vertex="1" parent="1">
          <mxGeometry x="2707" y="130" width="86" height="60" as="geometry" />
        </mxCell>
        <mxCell id="AZUPCOziI6SF9PpO8oum-160" value="Osszeg" style="ellipse;whiteSpace=wrap;html=1;" vertex="1" parent="1">
          <mxGeometry x="2640" y="290" width="86" height="60" as="geometry" />
        </mxCell>
        <mxCell id="AZUPCOziI6SF9PpO8oum-162" value="Etel" style="ellipse;whiteSpace=wrap;html=1;" vertex="1" parent="1">
          <mxGeometry x="2770" y="290" width="86" height="60" as="geometry" />
        </mxCell>
        <mxCell id="AZUPCOziI6SF9PpO8oum-163" value="" style="rounded=0;whiteSpace=wrap;html=1;rotation=90;" vertex="1" parent="1">
          <mxGeometry x="2775.5" y="390" width="75" height="40" as="geometry" />
        </mxCell>
        <mxCell id="AZUPCOziI6SF9PpO8oum-164" value="" style="endArrow=none;html=1;rounded=0;exitX=0.5;exitY=0;exitDx=0;exitDy=0;entryX=0.5;entryY=1;entryDx=0;entryDy=0;" edge="1" parent="1" source="AZUPCOziI6SF9PpO8oum-160" target="AZUPCOziI6SF9PpO8oum-156">
          <mxGeometry width="50" height="50" relative="1" as="geometry">
            <mxPoint x="2750" y="270" as="sourcePoint" />
            <mxPoint x="2800" y="220" as="targetPoint" />
          </mxGeometry>
        </mxCell>
        <mxCell id="AZUPCOziI6SF9PpO8oum-166" value="" style="endArrow=none;html=1;rounded=0;entryX=0.5;entryY=1;entryDx=0;entryDy=0;exitX=0.5;exitY=0;exitDx=0;exitDy=0;" edge="1" parent="1" source="AZUPCOziI6SF9PpO8oum-162" target="AZUPCOziI6SF9PpO8oum-156">
          <mxGeometry width="50" height="50" relative="1" as="geometry">
            <mxPoint x="2810" y="270" as="sourcePoint" />
            <mxPoint x="2860" y="220" as="targetPoint" />
          </mxGeometry>
        </mxCell>
        <mxCell id="AZUPCOziI6SF9PpO8oum-167" value="" style="endArrow=none;html=1;rounded=0;entryX=0.5;entryY=1;entryDx=0;entryDy=0;exitX=0;exitY=0.5;exitDx=0;exitDy=0;" edge="1" parent="1" source="AZUPCOziI6SF9PpO8oum-158" target="AZUPCOziI6SF9PpO8oum-160">
          <mxGeometry width="50" height="50" relative="1" as="geometry">
            <mxPoint x="2563" y="430" as="sourcePoint" />
            <mxPoint x="2613" y="380" as="targetPoint" />
          </mxGeometry>
        </mxCell>
        <mxCell id="AZUPCOziI6SF9PpO8oum-168" value="" style="endArrow=none;html=1;rounded=0;entryX=0.5;entryY=1;entryDx=0;entryDy=0;exitX=0;exitY=0.5;exitDx=0;exitDy=0;" edge="1" parent="1" source="AZUPCOziI6SF9PpO8oum-163" target="AZUPCOziI6SF9PpO8oum-162">
          <mxGeometry width="50" height="50" relative="1" as="geometry">
            <mxPoint x="2723" y="450" as="sourcePoint" />
            <mxPoint x="2773" y="400" as="targetPoint" />
          </mxGeometry>
        </mxCell>
        <mxCell id="AZUPCOziI6SF9PpO8oum-169" value="" style="endArrow=none;html=1;rounded=0;entryX=0;entryY=0.5;entryDx=0;entryDy=0;exitX=1;exitY=0.5;exitDx=0;exitDy=0;" edge="1" parent="1" source="AZUPCOziI6SF9PpO8oum-157" target="AZUPCOziI6SF9PpO8oum-156">
          <mxGeometry width="50" height="50" relative="1" as="geometry">
            <mxPoint x="2595" y="230" as="sourcePoint" />
            <mxPoint x="2645" y="180" as="targetPoint" />
          </mxGeometry>
        </mxCell>
        <mxCell id="AZUPCOziI6SF9PpO8oum-170" value="&lt;u&gt;E_V_V&lt;/u&gt;" style="rhombus;whiteSpace=wrap;html=1;" vertex="1" parent="1">
          <mxGeometry x="2940" y="200" width="80" height="80" as="geometry" />
        </mxCell>
        <mxCell id="AZUPCOziI6SF9PpO8oum-171" value="" style="endArrow=none;html=1;rounded=0;entryX=1;entryY=0.5;entryDx=0;entryDy=0;exitX=0;exitY=0.5;exitDx=0;exitDy=0;" edge="1" parent="1" source="AZUPCOziI6SF9PpO8oum-170" target="AZUPCOziI6SF9PpO8oum-156">
          <mxGeometry width="50" height="50" relative="1" as="geometry">
            <mxPoint x="3025" y="230" as="sourcePoint" />
            <mxPoint x="3120" y="160" as="targetPoint" />
          </mxGeometry>
        </mxCell>
        <mxCell id="AZUPCOziI6SF9PpO8oum-172" value="" style="endArrow=none;dashed=1;html=1;rounded=0;entryX=0.5;entryY=1;entryDx=0;entryDy=0;" edge="1" parent="1" target="AZUPCOziI6SF9PpO8oum-157">
          <mxGeometry width="50" height="50" relative="1" as="geometry">
            <mxPoint x="2520" y="720" as="sourcePoint" />
            <mxPoint x="2320" y="430" as="targetPoint" />
          </mxGeometry>
        </mxCell>
        <mxCell id="AZUPCOziI6SF9PpO8oum-173" value="" style="endArrow=none;dashed=1;html=1;rounded=0;" edge="1" parent="1">
          <mxGeometry width="50" height="50" relative="1" as="geometry">
            <mxPoint x="1990" y="720" as="sourcePoint" />
            <mxPoint x="2520" y="720" as="targetPoint" />
          </mxGeometry>
        </mxCell>
        <mxCell id="AZUPCOziI6SF9PpO8oum-174" value="" style="endArrow=none;dashed=1;html=1;rounded=0;entryX=0.5;entryY=1;entryDx=0;entryDy=0;" edge="1" parent="1" target="AZUPCOziI6SF9PpO8oum-128">
          <mxGeometry width="50" height="50" relative="1" as="geometry">
            <mxPoint x="1990" y="720" as="sourcePoint" />
            <mxPoint x="2160" y="490" as="targetPoint" />
          </mxGeometry>
        </mxCell>
        <mxCell id="AZUPCOziI6SF9PpO8oum-175" value="" style="endArrow=none;dashed=1;html=1;rounded=0;entryX=0.5;entryY=1;entryDx=0;entryDy=0;" edge="1" parent="1" target="AZUPCOziI6SF9PpO8oum-170">
          <mxGeometry width="50" height="50" relative="1" as="geometry">
            <mxPoint x="2980" y="880" as="sourcePoint" />
            <mxPoint x="2970" y="570" as="targetPoint" />
          </mxGeometry>
        </mxCell>
        <mxCell id="AZUPCOziI6SF9PpO8oum-176" value="" style="endArrow=none;dashed=1;html=1;rounded=0;" edge="1" parent="1">
          <mxGeometry width="50" height="50" relative="1" as="geometry">
            <mxPoint x="-470" y="880" as="sourcePoint" />
            <mxPoint x="2980" y="880" as="targetPoint" />
          </mxGeometry>
        </mxCell>
        <mxCell id="AZUPCOziI6SF9PpO8oum-177" value="" style="endArrow=none;dashed=1;html=1;rounded=0;" edge="1" parent="1">
          <mxGeometry width="50" height="50" relative="1" as="geometry">
            <mxPoint x="-470" y="880" as="sourcePoint" />
            <mxPoint x="-470" y="250" as="targetPoint" />
          </mxGeometry>
        </mxCell>
        <mxCell id="AZUPCOziI6SF9PpO8oum-178" value="" style="endArrow=none;dashed=1;html=1;rounded=0;entryX=0;entryY=0.5;entryDx=0;entryDy=0;" edge="1" parent="1" target="AZUPCOziI6SF9PpO8oum-3">
          <mxGeometry width="50" height="50" relative="1" as="geometry">
            <mxPoint x="-470" y="250" as="sourcePoint" />
            <mxPoint x="-130" y="250" as="targetPoint" />
          </mxGeometry>
        </mxCell>
        <mxCell id="AZUPCOziI6SF9PpO8oum-179" value="" style="endArrow=classic;html=1;rounded=0;entryX=0;entryY=0.5;entryDx=0;entryDy=0;" edge="1" parent="1" target="AZUPCOziI6SF9PpO8oum-3">
          <mxGeometry width="50" height="50" relative="1" as="geometry">
            <mxPoint x="-300" y="250" as="sourcePoint" />
            <mxPoint x="-130" y="250" as="targetPoint" />
          </mxGeometry>
        </mxCell>
        <mxCell id="AZUPCOziI6SF9PpO8oum-180" value="" style="endArrow=none;html=1;rounded=0;exitX=0.5;exitY=0;exitDx=0;exitDy=0;entryX=0.5;entryY=1;entryDx=0;entryDy=0;" edge="1" parent="1" source="AZUPCOziI6SF9PpO8oum-45" target="AZUPCOziI6SF9PpO8oum-1">
          <mxGeometry width="50" height="50" relative="1" as="geometry">
            <mxPoint x="710" y="180" as="sourcePoint" />
            <mxPoint x="760" y="130" as="targetPoint" />
          </mxGeometry>
        </mxCell>
        <mxCell id="AZUPCOziI6SF9PpO8oum-181" value="" style="endArrow=none;html=1;rounded=0;exitX=0.5;exitY=0;exitDx=0;exitDy=0;entryX=0.5;entryY=1;entryDx=0;entryDy=0;" edge="1" parent="1" source="AZUPCOziI6SF9PpO8oum-57" target="AZUPCOziI6SF9PpO8oum-1">
          <mxGeometry width="50" height="50" relative="1" as="geometry">
            <mxPoint x="1160" y="120" as="sourcePoint" />
            <mxPoint x="1210" y="70" as="targetPoint" />
          </mxGeometry>
        </mxCell>
        <mxCell id="AZUPCOziI6SF9PpO8oum-182" value="" style="endArrow=none;html=1;rounded=0;exitX=0.5;exitY=1;exitDx=0;exitDy=0;entryX=0.5;entryY=0;entryDx=0;entryDy=0;" edge="1" parent="1" source="AZUPCOziI6SF9PpO8oum-1" target="AZUPCOziI6SF9PpO8oum-89">
          <mxGeometry width="50" height="50" relative="1" as="geometry">
            <mxPoint x="1440" y="70" as="sourcePoint" />
            <mxPoint x="1490" y="20" as="targetPoint" />
          </mxGeometry>
        </mxCell>
        <mxCell id="AZUPCOziI6SF9PpO8oum-183" value="" style="endArrow=none;html=1;rounded=0;exitX=0.5;exitY=1;exitDx=0;exitDy=0;entryX=0.5;entryY=0;entryDx=0;entryDy=0;" edge="1" parent="1" source="AZUPCOziI6SF9PpO8oum-1" target="AZUPCOziI6SF9PpO8oum-127">
          <mxGeometry width="50" height="50" relative="1" as="geometry">
            <mxPoint x="1730" y="90" as="sourcePoint" />
            <mxPoint x="1780" y="40" as="targetPoint" />
          </mxGeometry>
        </mxCell>
        <mxCell id="AZUPCOziI6SF9PpO8oum-184" value="" style="endArrow=none;html=1;rounded=0;exitX=0.5;exitY=1;exitDx=0;exitDy=0;entryX=0.5;entryY=0;entryDx=0;entryDy=0;" edge="1" parent="1" source="AZUPCOziI6SF9PpO8oum-1" target="AZUPCOziI6SF9PpO8oum-156">
          <mxGeometry width="50" height="50" relative="1" as="geometry">
            <mxPoint x="1810" y="170" as="sourcePoint" />
            <mxPoint x="2400" y="110" as="targetPoint" />
          </mxGeometry>
        </mxCell>
      </root>
    </mxGraphModel>
  </diagram>
</mxfile>
